<mxfile host="Electron" agent="Mozilla/5.0 (Windows NT 10.0; Win64; x64) AppleWebKit/537.36 (KHTML, like Gecko) draw.io/25.0.2 Chrome/128.0.6613.186 Electron/32.2.5 Safari/537.36" version="25.0.2">
  <diagram name="Page-1" id="nk33O3myFzExoFOTdXr2">
    <mxGraphModel dx="1050" dy="629" grid="1" gridSize="10" guides="1" tooltips="1" connect="1" arrows="1" fold="1" page="1" pageScale="1" pageWidth="850" pageHeight="1100" math="0" shadow="0">
      <root>
        <mxCell id="0" />
        <mxCell id="1" parent="0" />
        <mxCell id="Ftrl88Cagnc_46KbOReK-1" style="edgeStyle=orthogonalEdgeStyle;rounded=0;orthogonalLoop=1;jettySize=auto;html=1;" edge="1" parent="1" source="UBjv-P3hsI7ne-E2DAJY-2" target="Ftrl88Cagnc_46KbOReK-2">
          <mxGeometry relative="1" as="geometry">
            <mxPoint x="400" y="100" as="targetPoint" />
          </mxGeometry>
        </mxCell>
        <mxCell id="UBjv-P3hsI7ne-E2DAJY-2" value="START" style="rounded=1;whiteSpace=wrap;html=1;arcSize=50;" parent="1" vertex="1">
          <mxGeometry x="360" y="10" width="80" height="30" as="geometry" />
        </mxCell>
        <mxCell id="UBjv-P3hsI7ne-E2DAJY-3" value="END" style="rounded=1;whiteSpace=wrap;html=1;arcSize=50;" parent="1" vertex="1">
          <mxGeometry x="360" y="535" width="80" height="30" as="geometry" />
        </mxCell>
        <mxCell id="Ftrl88Cagnc_46KbOReK-3" style="edgeStyle=orthogonalEdgeStyle;rounded=0;orthogonalLoop=1;jettySize=auto;html=1;" edge="1" parent="1" source="Ftrl88Cagnc_46KbOReK-2" target="Ftrl88Cagnc_46KbOReK-4">
          <mxGeometry relative="1" as="geometry">
            <mxPoint x="400" y="160" as="targetPoint" />
          </mxGeometry>
        </mxCell>
        <mxCell id="Ftrl88Cagnc_46KbOReK-2" value="Input number" style="shape=parallelogram;perimeter=parallelogramPerimeter;whiteSpace=wrap;html=1;fixedSize=1;" vertex="1" parent="1">
          <mxGeometry x="345" y="80" width="110" height="40" as="geometry" />
        </mxCell>
        <mxCell id="Ftrl88Cagnc_46KbOReK-13" style="edgeStyle=orthogonalEdgeStyle;rounded=0;orthogonalLoop=1;jettySize=auto;html=1;" edge="1" parent="1" source="Ftrl88Cagnc_46KbOReK-4" target="Ftrl88Cagnc_46KbOReK-14">
          <mxGeometry relative="1" as="geometry">
            <mxPoint x="400" y="250" as="targetPoint" />
          </mxGeometry>
        </mxCell>
        <mxCell id="Ftrl88Cagnc_46KbOReK-4" value="สุ่มเลขเท่ากับ(อินพุต)ครั้ง" style="rounded=0;whiteSpace=wrap;html=1;" vertex="1" parent="1">
          <mxGeometry x="335" y="160" width="130" height="40" as="geometry" />
        </mxCell>
        <mxCell id="Ftrl88Cagnc_46KbOReK-10" value="" style="edgeStyle=orthogonalEdgeStyle;rounded=0;orthogonalLoop=1;jettySize=auto;html=1;" edge="1" parent="1" source="Ftrl88Cagnc_46KbOReK-8" target="Ftrl88Cagnc_46KbOReK-9">
          <mxGeometry relative="1" as="geometry" />
        </mxCell>
        <mxCell id="Ftrl88Cagnc_46KbOReK-8" value="เก็บค่าที่มากสุดใน Max" style="rounded=0;whiteSpace=wrap;html=1;" vertex="1" parent="1">
          <mxGeometry x="335" y="310" width="130" height="30" as="geometry" />
        </mxCell>
        <mxCell id="Ftrl88Cagnc_46KbOReK-18" style="edgeStyle=orthogonalEdgeStyle;rounded=0;orthogonalLoop=1;jettySize=auto;html=1;" edge="1" parent="1" source="Ftrl88Cagnc_46KbOReK-9" target="Ftrl88Cagnc_46KbOReK-19">
          <mxGeometry relative="1" as="geometry">
            <mxPoint x="400" y="460" as="targetPoint" />
          </mxGeometry>
        </mxCell>
        <mxCell id="Ftrl88Cagnc_46KbOReK-9" value="เก็บค่าที่น้อยสุดใน Min" style="rounded=0;whiteSpace=wrap;html=1;" vertex="1" parent="1">
          <mxGeometry x="335" y="380" width="130" height="30" as="geometry" />
        </mxCell>
        <mxCell id="Ftrl88Cagnc_46KbOReK-16" style="edgeStyle=orthogonalEdgeStyle;rounded=0;orthogonalLoop=1;jettySize=auto;html=1;entryX=0.5;entryY=0;entryDx=0;entryDy=0;" edge="1" parent="1" source="Ftrl88Cagnc_46KbOReK-14" target="Ftrl88Cagnc_46KbOReK-8">
          <mxGeometry relative="1" as="geometry" />
        </mxCell>
        <mxCell id="Ftrl88Cagnc_46KbOReK-14" value="แสดงเลขที่สุ่มครั้งที่ 0 ถึง n" style="shape=parallelogram;perimeter=parallelogramPerimeter;whiteSpace=wrap;html=1;fixedSize=1;" vertex="1" parent="1">
          <mxGeometry x="315" y="230" width="170" height="40" as="geometry" />
        </mxCell>
        <mxCell id="Ftrl88Cagnc_46KbOReK-20" value="" style="edgeStyle=orthogonalEdgeStyle;rounded=0;orthogonalLoop=1;jettySize=auto;html=1;" edge="1" parent="1" source="Ftrl88Cagnc_46KbOReK-19" target="UBjv-P3hsI7ne-E2DAJY-3">
          <mxGeometry relative="1" as="geometry" />
        </mxCell>
        <mxCell id="Ftrl88Cagnc_46KbOReK-19" value="แสดงค่า&lt;div&gt;&lt;span style=&quot;background-color: initial;&quot;&gt;Max&lt;/span&gt;&lt;/div&gt;&lt;div&gt;&lt;span style=&quot;background-color: initial;&quot;&gt;Min&lt;/span&gt;&lt;/div&gt;" style="shape=parallelogram;perimeter=parallelogramPerimeter;whiteSpace=wrap;html=1;fixedSize=1;" vertex="1" parent="1">
          <mxGeometry x="340" y="450" width="120" height="50" as="geometry" />
        </mxCell>
      </root>
    </mxGraphModel>
  </diagram>
</mxfile>
